<svg width="207" height="12" viewBox="0 0 207 12" fill="none" xmlns="http://www.w3.org/2000/svg">
<path d="M5.70703 5.49609H6.5625C6.5625 6.10938 6.38672 6.57031 6.03516 6.87891C5.6875 7.18359 5.21484 7.33594 4.61719 7.33594C4.20312 7.33594 3.84375 7.24023 3.53906 7.04883C3.23828 6.85742 3.00391 6.5918 2.83594 6.25195C2.67188 5.91211 2.58984 5.51758 2.58984 5.06836V4.39453C2.58984 3.94531 2.67188 3.55078 2.83594 3.21094C3.00391 2.87109 3.23828 2.60547 3.53906 2.41406C3.84375 2.22266 4.20312 2.12695 4.61719 2.12695C5.21484 2.12695 5.68945 2.2793 6.04102 2.58398C6.39258 2.88867 6.56836 3.34766 6.56836 3.96094H5.71289C5.71289 3.57422 5.61914 3.29688 5.43164 3.12891C5.24805 2.96094 4.97656 2.87695 4.61719 2.87695C4.35938 2.87695 4.14258 2.94141 3.9668 3.07031C3.79102 3.19922 3.6582 3.37891 3.56836 3.60938C3.47852 3.83594 3.43359 4.0957 3.43359 4.38867V5.06836C3.43359 5.36523 3.47852 5.62891 3.56836 5.85938C3.6582 6.08594 3.79102 6.26367 3.9668 6.39258C4.14258 6.52148 4.35938 6.58594 4.61719 6.58594C4.97656 6.58594 5.24805 6.50195 5.43164 6.33398C5.61523 6.16602 5.70703 5.88672 5.70703 5.49609ZM1.21289 4.72852C1.21289 5.24805 1.30273 5.73242 1.48242 6.18164C1.66211 6.63086 1.91211 7.02344 2.23242 7.35938C2.55273 7.69531 2.92383 7.95703 3.3457 8.14453C3.76758 8.33203 4.21875 8.42578 4.69922 8.42578C5.17969 8.42578 5.62891 8.33203 6.04688 8.14453C6.46875 7.95703 6.83789 7.69531 7.1543 7.35938C7.47461 7.02344 7.72461 6.63086 7.9043 6.18164C8.08398 5.73242 8.17383 5.24805 8.17383 4.72852C8.17383 4.20508 8.08398 3.7207 7.9043 3.27539C7.72461 2.83008 7.47461 2.44141 7.1543 2.10938C6.83789 1.77344 6.46875 1.51367 6.04688 1.33008C5.62891 1.14258 5.17969 1.04883 4.69922 1.04883C4.21875 1.04883 3.76758 1.14258 3.3457 1.33008C2.92383 1.51367 2.55273 1.77344 2.23242 2.10938C1.91211 2.44141 1.66211 2.83008 1.48242 3.27539C1.30273 3.7207 1.21289 4.20508 1.21289 4.72852ZM0.539062 4.72852C0.539062 4.10742 0.646484 3.53125 0.861328 3C1.07617 2.46875 1.375 2.00586 1.75781 1.61133C2.14062 1.21289 2.58203 0.904297 3.08203 0.685547C3.58594 0.462891 4.125 0.351562 4.69922 0.351562C5.27344 0.351562 5.81055 0.462891 6.31055 0.685547C6.81445 0.904297 7.25586 1.21289 7.63477 1.61133C8.01758 2.00586 8.31641 2.46875 8.53125 3C8.74609 3.53125 8.85352 4.10742 8.85352 4.72852C8.85352 5.34961 8.74609 5.92578 8.53125 6.45703C8.31641 6.98828 8.01758 7.45508 7.63477 7.85742C7.25586 8.25586 6.81445 8.56641 6.31055 8.78906C5.81055 9.01172 5.27344 9.12305 4.69922 9.12305C4.125 9.12305 3.58594 9.01172 3.08203 8.78906C2.58203 8.56641 2.14062 8.25586 1.75781 7.85742C1.375 7.45508 1.07617 6.98828 0.861328 6.45703C0.646484 5.92578 0.539062 5.34961 0.539062 4.72852ZM18.709 8.10938V9H13.125V8.2207L15.9199 5.10938C16.2637 4.72656 16.5293 4.40234 16.7168 4.13672C16.9082 3.86719 17.041 3.62695 17.1152 3.41602C17.1934 3.20117 17.2324 2.98242 17.2324 2.75977C17.2324 2.47852 17.1738 2.22461 17.0566 1.99805C16.9434 1.76758 16.7754 1.58398 16.5527 1.44727C16.3301 1.31055 16.0605 1.24219 15.7441 1.24219C15.3652 1.24219 15.0488 1.31641 14.7949 1.46484C14.5449 1.60938 14.3574 1.8125 14.2324 2.07422C14.1074 2.33594 14.0449 2.63672 14.0449 2.97656H12.9609C12.9609 2.49609 13.0664 2.05664 13.2773 1.6582C13.4883 1.25977 13.8008 0.943359 14.2148 0.708984C14.6289 0.470703 15.1387 0.351562 15.7441 0.351562C16.2832 0.351562 16.7441 0.447266 17.127 0.638672C17.5098 0.826172 17.8027 1.0918 18.0059 1.43555C18.2129 1.77539 18.3164 2.17383 18.3164 2.63086C18.3164 2.88086 18.2734 3.13477 18.1875 3.39258C18.1055 3.64648 17.9902 3.90039 17.8418 4.1543C17.6973 4.4082 17.5273 4.6582 17.332 4.9043C17.1406 5.15039 16.9355 5.39258 16.7168 5.63086L14.4316 8.10938H18.709ZM25.2246 4.05469V5.35547C25.2246 6.05469 25.1621 6.64453 25.0371 7.125C24.9121 7.60547 24.7324 7.99219 24.498 8.28516C24.2637 8.57812 23.9805 8.79102 23.6484 8.92383C23.3203 9.05273 22.9492 9.11719 22.5352 9.11719C22.207 9.11719 21.9043 9.07617 21.627 8.99414C21.3496 8.91211 21.0996 8.78125 20.877 8.60156C20.6582 8.41797 20.4707 8.17969 20.3145 7.88672C20.1582 7.59375 20.0391 7.23828 19.957 6.82031C19.875 6.40234 19.834 5.91406 19.834 5.35547V4.05469C19.834 3.35547 19.8965 2.76953 20.0215 2.29688C20.1504 1.82422 20.332 1.44531 20.5664 1.16016C20.8008 0.871094 21.082 0.664062 21.4102 0.539062C21.7422 0.414062 22.1133 0.351562 22.5234 0.351562C22.8555 0.351562 23.1602 0.392578 23.4375 0.474609C23.7188 0.552734 23.9688 0.679688 24.1875 0.855469C24.4062 1.02734 24.5918 1.25781 24.7441 1.54688C24.9004 1.83203 25.0195 2.18164 25.1016 2.5957C25.1836 3.00977 25.2246 3.49609 25.2246 4.05469ZM24.1348 5.53125V3.87305C24.1348 3.49023 24.1113 3.1543 24.0645 2.86523C24.0215 2.57227 23.957 2.32227 23.8711 2.11523C23.7852 1.9082 23.6758 1.74023 23.543 1.61133C23.4141 1.48242 23.2637 1.38867 23.0918 1.33008C22.9238 1.26758 22.7344 1.23633 22.5234 1.23633C22.2656 1.23633 22.0371 1.28516 21.8379 1.38281C21.6387 1.47656 21.4707 1.62695 21.334 1.83398C21.2012 2.04102 21.0996 2.3125 21.0293 2.64844C20.959 2.98438 20.9238 3.39258 20.9238 3.87305V5.53125C20.9238 5.91406 20.9453 6.25195 20.9883 6.54492C21.0352 6.83789 21.1035 7.0918 21.1934 7.30664C21.2832 7.51758 21.3926 7.69141 21.5215 7.82812C21.6504 7.96484 21.7988 8.06641 21.9668 8.13281C22.1387 8.19531 22.3281 8.22656 22.5352 8.22656C22.8008 8.22656 23.0332 8.17578 23.2324 8.07422C23.4316 7.97266 23.5977 7.81445 23.7305 7.59961C23.8672 7.38086 23.9688 7.10156 24.0352 6.76172C24.1016 6.41797 24.1348 6.00781 24.1348 5.53125ZM32.209 8.10938V9H26.625V8.2207L29.4199 5.10938C29.7637 4.72656 30.0293 4.40234 30.2168 4.13672C30.4082 3.86719 30.541 3.62695 30.6152 3.41602C30.6934 3.20117 30.7324 2.98242 30.7324 2.75977C30.7324 2.47852 30.6738 2.22461 30.5566 1.99805C30.4434 1.76758 30.2754 1.58398 30.0527 1.44727C29.8301 1.31055 29.5605 1.24219 29.2441 1.24219C28.8652 1.24219 28.5488 1.31641 28.2949 1.46484C28.0449 1.60938 27.8574 1.8125 27.7324 2.07422C27.6074 2.33594 27.5449 2.63672 27.5449 2.97656H26.4609C26.4609 2.49609 26.5664 2.05664 26.7773 1.6582C26.9883 1.25977 27.3008 0.943359 27.7148 0.708984C28.1289 0.470703 28.6387 0.351562 29.2441 0.351562C29.7832 0.351562 30.2441 0.447266 30.627 0.638672C31.0098 0.826172 31.3027 1.0918 31.5059 1.43555C31.7129 1.77539 31.8164 2.17383 31.8164 2.63086C31.8164 2.88086 31.7734 3.13477 31.6875 3.39258C31.6055 3.64648 31.4902 3.90039 31.3418 4.1543C31.1973 4.4082 31.0273 4.6582 30.832 4.9043C30.6406 5.15039 30.4355 5.39258 30.2168 5.63086L27.9316 8.10938H32.209ZM38.959 8.10938V9H33.375V8.2207L36.1699 5.10938C36.5137 4.72656 36.7793 4.40234 36.9668 4.13672C37.1582 3.86719 37.291 3.62695 37.3652 3.41602C37.4434 3.20117 37.4824 2.98242 37.4824 2.75977C37.4824 2.47852 37.4238 2.22461 37.3066 1.99805C37.1934 1.76758 37.0254 1.58398 36.8027 1.44727C36.5801 1.31055 36.3105 1.24219 35.9941 1.24219C35.6152 1.24219 35.2988 1.31641 35.0449 1.46484C34.7949 1.60938 34.6074 1.8125 34.4824 2.07422C34.3574 2.33594 34.2949 2.63672 34.2949 2.97656H33.2109C33.2109 2.49609 33.3164 2.05664 33.5273 1.6582C33.7383 1.25977 34.0508 0.943359 34.4648 0.708984C34.8789 0.470703 35.3887 0.351562 35.9941 0.351562C36.5332 0.351562 36.9941 0.447266 37.377 0.638672C37.7598 0.826172 38.0527 1.0918 38.2559 1.43555C38.4629 1.77539 38.5664 2.17383 38.5664 2.63086C38.5664 2.88086 38.5234 3.13477 38.4375 3.39258C38.3555 3.64648 38.2402 3.90039 38.0918 4.1543C37.9473 4.4082 37.7773 4.6582 37.582 4.9043C37.3906 5.15039 37.1855 5.39258 36.9668 5.63086L34.6816 8.10938H38.959ZM47.9238 6.84375C47.9238 6.64453 47.8926 6.46875 47.8301 6.31641C47.7715 6.16016 47.666 6.01953 47.5137 5.89453C47.3652 5.76953 47.1582 5.65039 46.8926 5.53711C46.6309 5.42383 46.2988 5.30859 45.8965 5.19141C45.4746 5.06641 45.0938 4.92773 44.7539 4.77539C44.4141 4.61914 44.123 4.44141 43.8809 4.24219C43.6387 4.04297 43.4531 3.81445 43.3242 3.55664C43.1953 3.29883 43.1309 3.00391 43.1309 2.67188C43.1309 2.33984 43.1992 2.0332 43.3359 1.75195C43.4727 1.4707 43.668 1.22656 43.9219 1.01953C44.1797 0.808594 44.4863 0.644531 44.8418 0.527344C45.1973 0.410156 45.5938 0.351562 46.0312 0.351562C46.6719 0.351562 47.2148 0.474609 47.6602 0.720703C48.1094 0.962891 48.4512 1.28125 48.6855 1.67578C48.9199 2.06641 49.0371 2.48438 49.0371 2.92969H47.9121C47.9121 2.60938 47.8438 2.32617 47.707 2.08008C47.5703 1.83008 47.3633 1.63477 47.0859 1.49414C46.8086 1.34961 46.457 1.27734 46.0312 1.27734C45.6289 1.27734 45.2969 1.33789 45.0352 1.45898C44.7734 1.58008 44.5781 1.74414 44.4492 1.95117C44.3242 2.1582 44.2617 2.39453 44.2617 2.66016C44.2617 2.83984 44.2988 3.00391 44.373 3.15234C44.4512 3.29688 44.5703 3.43164 44.7305 3.55664C44.8945 3.68164 45.1016 3.79688 45.3516 3.90234C45.6055 4.00781 45.9082 4.10938 46.2598 4.20703C46.7441 4.34375 47.1621 4.49609 47.5137 4.66406C47.8652 4.83203 48.1543 5.02148 48.3809 5.23242C48.6113 5.43945 48.7812 5.67578 48.8906 5.94141C49.0039 6.20312 49.0605 6.5 49.0605 6.83203C49.0605 7.17969 48.9902 7.49414 48.8496 7.77539C48.709 8.05664 48.5078 8.29688 48.2461 8.49609C47.9844 8.69531 47.6699 8.84961 47.3027 8.95898C46.9395 9.06445 46.5332 9.11719 46.084 9.11719C45.6895 9.11719 45.3008 9.0625 44.918 8.95312C44.5391 8.84375 44.1934 8.67969 43.8809 8.46094C43.5723 8.24219 43.3242 7.97266 43.1367 7.65234C42.9531 7.32812 42.8613 6.95312 42.8613 6.52734H43.9863C43.9863 6.82031 44.043 7.07227 44.1562 7.2832C44.2695 7.49023 44.4238 7.66211 44.6191 7.79883C44.8184 7.93555 45.043 8.03711 45.293 8.10352C45.5469 8.16602 45.8105 8.19727 46.084 8.19727C46.4785 8.19727 46.8125 8.14258 47.0859 8.0332C47.3594 7.92383 47.5664 7.76758 47.707 7.56445C47.8516 7.36133 47.9238 7.12109 47.9238 6.84375ZM51.4219 3.87891V11.4375H50.332V2.66016H51.3281L51.4219 3.87891ZM55.6934 5.77734V5.90039C55.6934 6.36133 55.6387 6.78906 55.5293 7.18359C55.4199 7.57422 55.2598 7.91406 55.0488 8.20312C54.8418 8.49219 54.5859 8.7168 54.2812 8.87695C53.9766 9.03711 53.627 9.11719 53.2324 9.11719C52.8301 9.11719 52.4746 9.05078 52.166 8.91797C51.8574 8.78516 51.5957 8.5918 51.3809 8.33789C51.166 8.08398 50.9941 7.7793 50.8652 7.42383C50.7402 7.06836 50.6543 6.66797 50.6074 6.22266V5.56641C50.6543 5.09766 50.7422 4.67773 50.8711 4.30664C51 3.93555 51.1699 3.61914 51.3809 3.35742C51.5957 3.0918 51.8555 2.89062 52.1602 2.75391C52.4648 2.61328 52.8164 2.54297 53.2148 2.54297C53.6133 2.54297 53.9668 2.62109 54.2754 2.77734C54.584 2.92969 54.8438 3.14844 55.0547 3.43359C55.2656 3.71875 55.4238 4.06055 55.5293 4.45898C55.6387 4.85352 55.6934 5.29297 55.6934 5.77734ZM54.6035 5.90039V5.77734C54.6035 5.46094 54.5703 5.16406 54.5039 4.88672C54.4375 4.60547 54.334 4.35938 54.1934 4.14844C54.0566 3.93359 53.8809 3.76562 53.666 3.64453C53.4512 3.51953 53.1953 3.45703 52.8984 3.45703C52.625 3.45703 52.3867 3.50391 52.1836 3.59766C51.9844 3.69141 51.8145 3.81836 51.6738 3.97852C51.5332 4.13477 51.418 4.31445 51.3281 4.51758C51.2422 4.7168 51.1777 4.92383 51.1348 5.13867V6.65625C51.2129 6.92969 51.3223 7.1875 51.4629 7.42969C51.6035 7.66797 51.791 7.86133 52.0254 8.00977C52.2598 8.1543 52.5547 8.22656 52.9102 8.22656C53.2031 8.22656 53.4551 8.16602 53.666 8.04492C53.8809 7.91992 54.0566 7.75 54.1934 7.53516C54.334 7.32031 54.4375 7.07422 54.5039 6.79688C54.5703 6.51562 54.6035 6.2168 54.6035 5.90039ZM58.2539 0V9H57.1641V0H58.2539ZM61.1719 2.66016V9H60.082V2.66016H61.1719ZM60 0.978516C60 0.802734 60.0527 0.654297 60.1582 0.533203C60.2676 0.412109 60.4277 0.351562 60.6387 0.351562C60.8457 0.351562 61.0039 0.412109 61.1133 0.533203C61.2266 0.654297 61.2832 0.802734 61.2832 0.978516C61.2832 1.14648 61.2266 1.29102 61.1133 1.41211C61.0039 1.5293 60.8457 1.58789 60.6387 1.58789C60.4277 1.58789 60.2676 1.5293 60.1582 1.41211C60.0527 1.29102 60 1.14648 60 0.978516ZM65.4492 8.22656C65.707 8.22656 65.9453 8.17383 66.1641 8.06836C66.3828 7.96289 66.5625 7.81836 66.7031 7.63477C66.8438 7.44727 66.9238 7.23438 66.9434 6.99609H67.9746C67.9551 7.37109 67.8281 7.7207 67.5938 8.04492C67.3633 8.36523 67.0605 8.625 66.6855 8.82422C66.3105 9.01953 65.8984 9.11719 65.4492 9.11719C64.9727 9.11719 64.5566 9.0332 64.2012 8.86523C63.8496 8.69727 63.5566 8.4668 63.3223 8.17383C63.0918 7.88086 62.918 7.54492 62.8008 7.16602C62.6875 6.7832 62.6309 6.37891 62.6309 5.95312V5.70703C62.6309 5.28125 62.6875 4.87891 62.8008 4.5C62.918 4.11719 63.0918 3.7793 63.3223 3.48633C63.5566 3.19336 63.8496 2.96289 64.2012 2.79492C64.5566 2.62695 64.9727 2.54297 65.4492 2.54297C65.9453 2.54297 66.3789 2.64453 66.75 2.84766C67.1211 3.04688 67.4121 3.32031 67.623 3.66797C67.8379 4.01172 67.9551 4.40234 67.9746 4.83984H66.9434C66.9238 4.57812 66.8496 4.3418 66.7207 4.13086C66.5957 3.91992 66.4238 3.75195 66.2051 3.62695C65.9902 3.49805 65.7383 3.43359 65.4492 3.43359C65.1172 3.43359 64.8379 3.5 64.6113 3.63281C64.3887 3.76172 64.2109 3.9375 64.0781 4.16016C63.9492 4.37891 63.8555 4.62305 63.7969 4.89258C63.7422 5.1582 63.7148 5.42969 63.7148 5.70703V5.95312C63.7148 6.23047 63.7422 6.50391 63.7969 6.77344C63.8516 7.04297 63.9434 7.28711 64.0723 7.50586C64.2051 7.72461 64.3828 7.90039 64.6055 8.0332C64.832 8.16211 65.1133 8.22656 65.4492 8.22656ZM71.8242 9.11719C71.3828 9.11719 70.9824 9.04297 70.623 8.89453C70.2676 8.74219 69.9609 8.5293 69.7031 8.25586C69.4492 7.98242 69.2539 7.6582 69.1172 7.2832C68.9805 6.9082 68.9121 6.49805 68.9121 6.05273V5.80664C68.9121 5.29102 68.9883 4.83203 69.1406 4.42969C69.293 4.02344 69.5 3.67969 69.7617 3.39844C70.0234 3.11719 70.3203 2.9043 70.6523 2.75977C70.9844 2.61523 71.3281 2.54297 71.6836 2.54297C72.1367 2.54297 72.5273 2.62109 72.8555 2.77734C73.1875 2.93359 73.459 3.15234 73.6699 3.43359C73.8809 3.71094 74.0371 4.03906 74.1387 4.41797C74.2402 4.79297 74.291 5.20312 74.291 5.64844V6.13477H69.5566V5.25H73.207V5.16797C73.1914 4.88672 73.1328 4.61328 73.0312 4.34766C72.9336 4.08203 72.7773 3.86328 72.5625 3.69141C72.3477 3.51953 72.0547 3.43359 71.6836 3.43359C71.4375 3.43359 71.2109 3.48633 71.0039 3.5918C70.7969 3.69336 70.6191 3.8457 70.4707 4.04883C70.3223 4.25195 70.207 4.5 70.125 4.79297C70.043 5.08594 70.002 5.42383 70.002 5.80664V6.05273C70.002 6.35352 70.043 6.63672 70.125 6.90234C70.2109 7.16406 70.334 7.39453 70.4941 7.59375C70.6582 7.79297 70.8555 7.94922 71.0859 8.0625C71.3203 8.17578 71.5859 8.23242 71.8828 8.23242C72.2656 8.23242 72.5898 8.1543 72.8555 7.99805C73.1211 7.8418 73.3535 7.63281 73.5527 7.37109L74.209 7.89258C74.0723 8.09961 73.8984 8.29688 73.6875 8.48438C73.4766 8.67188 73.2168 8.82422 72.9082 8.94141C72.6035 9.05859 72.2422 9.11719 71.8242 9.11719ZM75.5742 8.42578C75.5742 8.24219 75.6309 8.08789 75.7441 7.96289C75.8613 7.83398 76.0293 7.76953 76.248 7.76953C76.4668 7.76953 76.6328 7.83398 76.7461 7.96289C76.8633 8.08789 76.9219 8.24219 76.9219 8.42578C76.9219 8.60547 76.8633 8.75781 76.7461 8.88281C76.6328 9.00781 76.4668 9.07031 76.248 9.07031C76.0293 9.07031 75.8613 9.00781 75.7441 8.88281C75.6309 8.75781 75.5742 8.60547 75.5742 8.42578ZM81.2578 8.22656C81.5156 8.22656 81.7539 8.17383 81.9727 8.06836C82.1914 7.96289 82.3711 7.81836 82.5117 7.63477C82.6523 7.44727 82.7324 7.23438 82.752 6.99609H83.7832C83.7637 7.37109 83.6367 7.7207 83.4023 8.04492C83.1719 8.36523 82.8691 8.625 82.4941 8.82422C82.1191 9.01953 81.707 9.11719 81.2578 9.11719C80.7812 9.11719 80.3652 9.0332 80.0098 8.86523C79.6582 8.69727 79.3652 8.4668 79.1309 8.17383C78.9004 7.88086 78.7266 7.54492 78.6094 7.16602C78.4961 6.7832 78.4395 6.37891 78.4395 5.95312V5.70703C78.4395 5.28125 78.4961 4.87891 78.6094 4.5C78.7266 4.11719 78.9004 3.7793 79.1309 3.48633C79.3652 3.19336 79.6582 2.96289 80.0098 2.79492C80.3652 2.62695 80.7812 2.54297 81.2578 2.54297C81.7539 2.54297 82.1875 2.64453 82.5586 2.84766C82.9297 3.04688 83.2207 3.32031 83.4316 3.66797C83.6465 4.01172 83.7637 4.40234 83.7832 4.83984H82.752C82.7324 4.57812 82.6582 4.3418 82.5293 4.13086C82.4043 3.91992 82.2324 3.75195 82.0137 3.62695C81.7988 3.49805 81.5469 3.43359 81.2578 3.43359C80.9258 3.43359 80.6465 3.5 80.4199 3.63281C80.1973 3.76172 80.0195 3.9375 79.8867 4.16016C79.7578 4.37891 79.6641 4.62305 79.6055 4.89258C79.5508 5.1582 79.5234 5.42969 79.5234 5.70703V5.95312C79.5234 6.23047 79.5508 6.50391 79.6055 6.77344C79.6602 7.04297 79.752 7.28711 79.8809 7.50586C80.0137 7.72461 80.1914 7.90039 80.4141 8.0332C80.6406 8.16211 80.9219 8.22656 81.2578 8.22656ZM84.7148 5.90039V5.76562C84.7148 5.30859 84.7812 4.88477 84.9141 4.49414C85.0469 4.09961 85.2383 3.75781 85.4883 3.46875C85.7383 3.17578 86.041 2.94922 86.3965 2.78906C86.752 2.625 87.1504 2.54297 87.5918 2.54297C88.0371 2.54297 88.4375 2.625 88.793 2.78906C89.1523 2.94922 89.457 3.17578 89.707 3.46875C89.9609 3.75781 90.1543 4.09961 90.2871 4.49414C90.4199 4.88477 90.4863 5.30859 90.4863 5.76562V5.90039C90.4863 6.35742 90.4199 6.78125 90.2871 7.17188C90.1543 7.5625 89.9609 7.9043 89.707 8.19727C89.457 8.48633 89.1543 8.71289 88.7988 8.87695C88.4473 9.03711 88.0488 9.11719 87.6035 9.11719C87.1582 9.11719 86.7578 9.03711 86.4023 8.87695C86.0469 8.71289 85.7422 8.48633 85.4883 8.19727C85.2383 7.9043 85.0469 7.5625 84.9141 7.17188C84.7812 6.78125 84.7148 6.35742 84.7148 5.90039ZM85.7988 5.76562V5.90039C85.7988 6.2168 85.8359 6.51562 85.9102 6.79688C85.9844 7.07422 86.0957 7.32031 86.2441 7.53516C86.3965 7.75 86.5859 7.91992 86.8125 8.04492C87.0391 8.16602 87.3027 8.22656 87.6035 8.22656C87.9004 8.22656 88.1602 8.16602 88.3828 8.04492C88.6094 7.91992 88.7969 7.75 88.9453 7.53516C89.0938 7.32031 89.2051 7.07422 89.2793 6.79688C89.3574 6.51562 89.3965 6.2168 89.3965 5.90039V5.76562C89.3965 5.45312 89.3574 5.1582 89.2793 4.88086C89.2051 4.59961 89.0918 4.35156 88.9395 4.13672C88.791 3.91797 88.6035 3.74609 88.377 3.62109C88.1543 3.49609 87.8926 3.43359 87.5918 3.43359C87.2949 3.43359 87.0332 3.49609 86.8066 3.62109C86.584 3.74609 86.3965 3.91797 86.2441 4.13672C86.0957 4.35156 85.9844 4.59961 85.9102 4.88086C85.8359 5.1582 85.7988 5.45312 85.7988 5.76562ZM92.9238 3.91992V9H91.834V2.66016H92.8652L92.9238 3.91992ZM92.7012 5.58984L92.1973 5.57227C92.2012 5.13867 92.2578 4.73828 92.3672 4.37109C92.4766 4 92.6387 3.67773 92.8535 3.4043C93.0684 3.13086 93.3359 2.91992 93.6562 2.77148C93.9766 2.61914 94.3477 2.54297 94.7695 2.54297C95.0664 2.54297 95.3398 2.58594 95.5898 2.67188C95.8398 2.75391 96.0566 2.88477 96.2402 3.06445C96.4238 3.24414 96.5664 3.47461 96.668 3.75586C96.7695 4.03711 96.8203 4.37695 96.8203 4.77539V9H95.7363V4.82812C95.7363 4.49609 95.6797 4.23047 95.5664 4.03125C95.457 3.83203 95.3008 3.6875 95.0977 3.59766C94.8945 3.50391 94.6562 3.45703 94.3828 3.45703C94.0625 3.45703 93.7949 3.51367 93.5801 3.62695C93.3652 3.74023 93.1934 3.89648 93.0645 4.0957C92.9355 4.29492 92.8418 4.52344 92.7832 4.78125C92.7285 5.03516 92.7012 5.30469 92.7012 5.58984ZM96.8086 4.99219L96.082 5.21484C96.0859 4.86719 96.1426 4.5332 96.252 4.21289C96.3652 3.89258 96.5273 3.60742 96.7383 3.35742C96.9531 3.10742 97.2168 2.91016 97.5293 2.76562C97.8418 2.61719 98.1992 2.54297 98.6016 2.54297C98.9414 2.54297 99.2422 2.58789 99.5039 2.67773C99.7695 2.76758 99.9922 2.90625 100.172 3.09375C100.355 3.27734 100.494 3.51367 100.588 3.80273C100.682 4.0918 100.729 4.43555 100.729 4.83398V9H99.6387V4.82227C99.6387 4.4668 99.582 4.19141 99.4688 3.99609C99.3594 3.79688 99.2031 3.6582 99 3.58008C98.8008 3.49805 98.5625 3.45703 98.2852 3.45703C98.0469 3.45703 97.8359 3.49805 97.6523 3.58008C97.4688 3.66211 97.3145 3.77539 97.1895 3.91992C97.0645 4.06055 96.9688 4.22266 96.9023 4.40625C96.8398 4.58984 96.8086 4.78516 96.8086 4.99219ZM108.668 1.22461L105.844 9H104.689L107.941 0.46875H108.686L108.668 1.22461ZM111.035 9L108.205 1.22461L108.188 0.46875H108.932L112.195 9H111.035ZM110.889 5.8418V6.76758H106.096V5.8418H110.889ZM114.352 0V9H113.262V0H114.352ZM117.27 0V9H116.18V0H117.27ZM122.15 0.46875H124.975C125.615 0.46875 126.156 0.566406 126.598 0.761719C127.043 0.957031 127.381 1.24609 127.611 1.62891C127.846 2.00781 127.963 2.47461 127.963 3.0293C127.963 3.41992 127.883 3.77734 127.723 4.10156C127.566 4.42188 127.34 4.69531 127.043 4.92188C126.75 5.14453 126.398 5.31055 125.988 5.41992L125.672 5.54297H123.018L123.006 4.62305H125.01C125.416 4.62305 125.754 4.55273 126.023 4.41211C126.293 4.26758 126.496 4.07422 126.633 3.83203C126.77 3.58984 126.838 3.32227 126.838 3.0293C126.838 2.70117 126.773 2.41406 126.645 2.16797C126.516 1.92188 126.312 1.73242 126.035 1.59961C125.762 1.46289 125.408 1.39453 124.975 1.39453H123.281V9H122.15V0.46875ZM127.137 9L125.062 5.13281L126.24 5.12695L128.344 8.92969V9H127.137ZM130.559 2.66016V9H129.469V2.66016H130.559ZM129.387 0.978516C129.387 0.802734 129.439 0.654297 129.545 0.533203C129.654 0.412109 129.814 0.351562 130.025 0.351562C130.232 0.351562 130.391 0.412109 130.5 0.533203C130.613 0.654297 130.67 0.802734 130.67 0.978516C130.67 1.14648 130.613 1.29102 130.5 1.41211C130.391 1.5293 130.232 1.58789 130.025 1.58789C129.814 1.58789 129.654 1.5293 129.545 1.41211C129.439 1.29102 129.387 1.14648 129.387 0.978516ZM136.406 2.66016H137.391V8.86523C137.391 9.42383 137.277 9.90039 137.051 10.2949C136.824 10.6895 136.508 10.9883 136.102 11.1914C135.699 11.3984 135.234 11.502 134.707 11.502C134.488 11.502 134.23 11.4668 133.934 11.3965C133.641 11.3301 133.352 11.2148 133.066 11.0508C132.785 10.8906 132.549 10.6738 132.357 10.4004L132.926 9.75586C133.191 10.0762 133.469 10.2988 133.758 10.4238C134.051 10.5488 134.34 10.6113 134.625 10.6113C134.969 10.6113 135.266 10.5469 135.516 10.418C135.766 10.2891 135.959 10.0977 136.096 9.84375C136.236 9.59375 136.307 9.28516 136.307 8.91797V4.05469L136.406 2.66016ZM132.041 5.90039V5.77734C132.041 5.29297 132.098 4.85352 132.211 4.45898C132.328 4.06055 132.494 3.71875 132.709 3.43359C132.928 3.14844 133.191 2.92969 133.5 2.77734C133.809 2.62109 134.156 2.54297 134.543 2.54297C134.941 2.54297 135.289 2.61328 135.586 2.75391C135.887 2.89062 136.141 3.0918 136.348 3.35742C136.559 3.61914 136.725 3.93555 136.846 4.30664C136.967 4.67773 137.051 5.09766 137.098 5.56641V6.10547C137.055 6.57031 136.971 6.98828 136.846 7.35938C136.725 7.73047 136.559 8.04688 136.348 8.30859C136.141 8.57031 135.887 8.77148 135.586 8.91211C135.285 9.04883 134.934 9.11719 134.531 9.11719C134.152 9.11719 133.809 9.03711 133.5 8.87695C133.195 8.7168 132.934 8.49219 132.715 8.20312C132.496 7.91406 132.328 7.57422 132.211 7.18359C132.098 6.78906 132.041 6.36133 132.041 5.90039ZM133.125 5.77734V5.90039C133.125 6.2168 133.156 6.51367 133.219 6.79102C133.285 7.06836 133.385 7.3125 133.518 7.52344C133.654 7.73438 133.828 7.90039 134.039 8.02148C134.25 8.13867 134.502 8.19727 134.795 8.19727C135.154 8.19727 135.451 8.12109 135.686 7.96875C135.92 7.81641 136.105 7.61523 136.242 7.36523C136.383 7.11523 136.492 6.84375 136.57 6.55078V5.13867C136.527 4.92383 136.461 4.7168 136.371 4.51758C136.285 4.31445 136.172 4.13477 136.031 3.97852C135.895 3.81836 135.725 3.69141 135.521 3.59766C135.318 3.50391 135.08 3.45703 134.807 3.45703C134.51 3.45703 134.254 3.51953 134.039 3.64453C133.828 3.76562 133.654 3.93359 133.518 4.14844C133.385 4.35938 133.285 4.60547 133.219 4.88672C133.156 5.16406 133.125 5.46094 133.125 5.77734ZM140.121 0V9H139.037V0H140.121ZM139.863 5.58984L139.412 5.57227C139.416 5.13867 139.48 4.73828 139.605 4.37109C139.73 4 139.906 3.67773 140.133 3.4043C140.359 3.13086 140.629 2.91992 140.941 2.77148C141.258 2.61914 141.607 2.54297 141.99 2.54297C142.303 2.54297 142.584 2.58594 142.834 2.67188C143.084 2.75391 143.297 2.88672 143.473 3.07031C143.652 3.25391 143.789 3.49219 143.883 3.78516C143.977 4.07422 144.023 4.42773 144.023 4.8457V9H142.934V4.83398C142.934 4.50195 142.885 4.23633 142.787 4.03711C142.689 3.83398 142.547 3.6875 142.359 3.59766C142.172 3.50391 141.941 3.45703 141.668 3.45703C141.398 3.45703 141.152 3.51367 140.93 3.62695C140.711 3.74023 140.521 3.89648 140.361 4.0957C140.205 4.29492 140.082 4.52344 139.992 4.78125C139.906 5.03516 139.863 5.30469 139.863 5.58984ZM148.301 2.66016V3.49219H144.873V2.66016H148.301ZM146.033 1.11914H147.117V7.42969C147.117 7.64453 147.15 7.80664 147.217 7.91602C147.283 8.02539 147.369 8.09766 147.475 8.13281C147.58 8.16797 147.693 8.18555 147.814 8.18555C147.904 8.18555 147.998 8.17773 148.096 8.16211C148.197 8.14258 148.273 8.12695 148.324 8.11523L148.33 9C148.244 9.02734 148.131 9.05273 147.99 9.07617C147.854 9.10352 147.688 9.11719 147.492 9.11719C147.227 9.11719 146.982 9.06445 146.76 8.95898C146.537 8.85352 146.359 8.67773 146.227 8.43164C146.098 8.18164 146.033 7.8457 146.033 7.42383V1.11914ZM153.264 7.31836C153.264 7.16211 153.229 7.01758 153.158 6.88477C153.092 6.74805 152.953 6.625 152.742 6.51562C152.535 6.40234 152.223 6.30469 151.805 6.22266C151.453 6.14844 151.135 6.06055 150.85 5.95898C150.568 5.85742 150.328 5.73438 150.129 5.58984C149.934 5.44531 149.783 5.27539 149.678 5.08008C149.572 4.88477 149.52 4.65625 149.52 4.39453C149.52 4.14453 149.574 3.9082 149.684 3.68555C149.797 3.46289 149.955 3.26562 150.158 3.09375C150.365 2.92188 150.613 2.78711 150.902 2.68945C151.191 2.5918 151.514 2.54297 151.869 2.54297C152.377 2.54297 152.811 2.63281 153.17 2.8125C153.529 2.99219 153.805 3.23242 153.996 3.5332C154.188 3.83008 154.283 4.16016 154.283 4.52344H153.199C153.199 4.34766 153.146 4.17773 153.041 4.01367C152.939 3.8457 152.789 3.70703 152.59 3.59766C152.395 3.48828 152.154 3.43359 151.869 3.43359C151.568 3.43359 151.324 3.48047 151.137 3.57422C150.953 3.66406 150.818 3.7793 150.732 3.91992C150.65 4.06055 150.609 4.20898 150.609 4.36523C150.609 4.48242 150.629 4.58789 150.668 4.68164C150.711 4.77148 150.785 4.85547 150.891 4.93359C150.996 5.00781 151.145 5.07812 151.336 5.14453C151.527 5.21094 151.771 5.27734 152.068 5.34375C152.588 5.46094 153.016 5.60156 153.352 5.76562C153.688 5.92969 153.938 6.13086 154.102 6.36914C154.266 6.60742 154.348 6.89648 154.348 7.23633C154.348 7.51367 154.289 7.76758 154.172 7.99805C154.059 8.22852 153.893 8.42773 153.674 8.5957C153.459 8.75977 153.201 8.88867 152.9 8.98242C152.604 9.07227 152.27 9.11719 151.898 9.11719C151.34 9.11719 150.867 9.01758 150.48 8.81836C150.094 8.61914 149.801 8.36133 149.602 8.04492C149.402 7.72852 149.303 7.39453 149.303 7.04297H150.393C150.408 7.33984 150.494 7.57617 150.65 7.75195C150.807 7.92383 150.998 8.04688 151.225 8.12109C151.451 8.19141 151.676 8.22656 151.898 8.22656C152.195 8.22656 152.443 8.1875 152.643 8.10938C152.846 8.03125 153 7.92383 153.105 7.78711C153.211 7.65039 153.264 7.49414 153.264 7.31836ZM158.912 0.46875H161.736C162.377 0.46875 162.918 0.566406 163.359 0.761719C163.805 0.957031 164.143 1.24609 164.373 1.62891C164.607 2.00781 164.725 2.47461 164.725 3.0293C164.725 3.41992 164.645 3.77734 164.484 4.10156C164.328 4.42188 164.102 4.69531 163.805 4.92188C163.512 5.14453 163.16 5.31055 162.75 5.41992L162.434 5.54297H159.779L159.768 4.62305H161.771C162.178 4.62305 162.516 4.55273 162.785 4.41211C163.055 4.26758 163.258 4.07422 163.395 3.83203C163.531 3.58984 163.6 3.32227 163.6 3.0293C163.6 2.70117 163.535 2.41406 163.406 2.16797C163.277 1.92188 163.074 1.73242 162.797 1.59961C162.523 1.46289 162.17 1.39453 161.736 1.39453H160.043V9H158.912V0.46875ZM163.898 9L161.824 5.13281L163.002 5.12695L165.105 8.92969V9H163.898ZM168.773 9.11719C168.332 9.11719 167.932 9.04297 167.572 8.89453C167.217 8.74219 166.91 8.5293 166.652 8.25586C166.398 7.98242 166.203 7.6582 166.066 7.2832C165.93 6.9082 165.861 6.49805 165.861 6.05273V5.80664C165.861 5.29102 165.938 4.83203 166.09 4.42969C166.242 4.02344 166.449 3.67969 166.711 3.39844C166.973 3.11719 167.27 2.9043 167.602 2.75977C167.934 2.61523 168.277 2.54297 168.633 2.54297C169.086 2.54297 169.477 2.62109 169.805 2.77734C170.137 2.93359 170.408 3.15234 170.619 3.43359C170.83 3.71094 170.986 4.03906 171.088 4.41797C171.189 4.79297 171.24 5.20312 171.24 5.64844V6.13477H166.506V5.25H170.156V5.16797C170.141 4.88672 170.082 4.61328 169.98 4.34766C169.883 4.08203 169.727 3.86328 169.512 3.69141C169.297 3.51953 169.004 3.43359 168.633 3.43359C168.387 3.43359 168.16 3.48633 167.953 3.5918C167.746 3.69336 167.568 3.8457 167.42 4.04883C167.271 4.25195 167.156 4.5 167.074 4.79297C166.992 5.08594 166.951 5.42383 166.951 5.80664V6.05273C166.951 6.35352 166.992 6.63672 167.074 6.90234C167.16 7.16406 167.283 7.39453 167.443 7.59375C167.607 7.79297 167.805 7.94922 168.035 8.0625C168.27 8.17578 168.535 8.23242 168.832 8.23242C169.215 8.23242 169.539 8.1543 169.805 7.99805C170.07 7.8418 170.303 7.63281 170.502 7.37109L171.158 7.89258C171.021 8.09961 170.848 8.29688 170.637 8.48438C170.426 8.67188 170.166 8.82422 169.857 8.94141C169.553 9.05859 169.191 9.11719 168.773 9.11719ZM176.197 7.31836C176.197 7.16211 176.162 7.01758 176.092 6.88477C176.025 6.74805 175.887 6.625 175.676 6.51562C175.469 6.40234 175.156 6.30469 174.738 6.22266C174.387 6.14844 174.068 6.06055 173.783 5.95898C173.502 5.85742 173.262 5.73438 173.062 5.58984C172.867 5.44531 172.717 5.27539 172.611 5.08008C172.506 4.88477 172.453 4.65625 172.453 4.39453C172.453 4.14453 172.508 3.9082 172.617 3.68555C172.73 3.46289 172.889 3.26562 173.092 3.09375C173.299 2.92188 173.547 2.78711 173.836 2.68945C174.125 2.5918 174.447 2.54297 174.803 2.54297C175.311 2.54297 175.744 2.63281 176.104 2.8125C176.463 2.99219 176.738 3.23242 176.93 3.5332C177.121 3.83008 177.217 4.16016 177.217 4.52344H176.133C176.133 4.34766 176.08 4.17773 175.975 4.01367C175.873 3.8457 175.723 3.70703 175.523 3.59766C175.328 3.48828 175.088 3.43359 174.803 3.43359C174.502 3.43359 174.258 3.48047 174.07 3.57422C173.887 3.66406 173.752 3.7793 173.666 3.91992C173.584 4.06055 173.543 4.20898 173.543 4.36523C173.543 4.48242 173.562 4.58789 173.602 4.68164C173.645 4.77148 173.719 4.85547 173.824 4.93359C173.93 5.00781 174.078 5.07812 174.27 5.14453C174.461 5.21094 174.705 5.27734 175.002 5.34375C175.521 5.46094 175.949 5.60156 176.285 5.76562C176.621 5.92969 176.871 6.13086 177.035 6.36914C177.199 6.60742 177.281 6.89648 177.281 7.23633C177.281 7.51367 177.223 7.76758 177.105 7.99805C176.992 8.22852 176.826 8.42773 176.607 8.5957C176.393 8.75977 176.135 8.88867 175.834 8.98242C175.537 9.07227 175.203 9.11719 174.832 9.11719C174.273 9.11719 173.801 9.01758 173.414 8.81836C173.027 8.61914 172.734 8.36133 172.535 8.04492C172.336 7.72852 172.236 7.39453 172.236 7.04297H173.326C173.342 7.33984 173.428 7.57617 173.584 7.75195C173.74 7.92383 173.932 8.04688 174.158 8.12109C174.385 8.19141 174.609 8.22656 174.832 8.22656C175.129 8.22656 175.377 8.1875 175.576 8.10938C175.779 8.03125 175.934 7.92383 176.039 7.78711C176.145 7.65039 176.197 7.49414 176.197 7.31836ZM181.336 9.11719C180.895 9.11719 180.494 9.04297 180.135 8.89453C179.779 8.74219 179.473 8.5293 179.215 8.25586C178.961 7.98242 178.766 7.6582 178.629 7.2832C178.492 6.9082 178.424 6.49805 178.424 6.05273V5.80664C178.424 5.29102 178.5 4.83203 178.652 4.42969C178.805 4.02344 179.012 3.67969 179.273 3.39844C179.535 3.11719 179.832 2.9043 180.164 2.75977C180.496 2.61523 180.84 2.54297 181.195 2.54297C181.648 2.54297 182.039 2.62109 182.367 2.77734C182.699 2.93359 182.971 3.15234 183.182 3.43359C183.393 3.71094 183.549 4.03906 183.65 4.41797C183.752 4.79297 183.803 5.20312 183.803 5.64844V6.13477H179.068V5.25H182.719V5.16797C182.703 4.88672 182.645 4.61328 182.543 4.34766C182.445 4.08203 182.289 3.86328 182.074 3.69141C181.859 3.51953 181.566 3.43359 181.195 3.43359C180.949 3.43359 180.723 3.48633 180.516 3.5918C180.309 3.69336 180.131 3.8457 179.982 4.04883C179.834 4.25195 179.719 4.5 179.637 4.79297C179.555 5.08594 179.514 5.42383 179.514 5.80664V6.05273C179.514 6.35352 179.555 6.63672 179.637 6.90234C179.723 7.16406 179.846 7.39453 180.006 7.59375C180.17 7.79297 180.367 7.94922 180.598 8.0625C180.832 8.17578 181.098 8.23242 181.395 8.23242C181.777 8.23242 182.102 8.1543 182.367 7.99805C182.633 7.8418 182.865 7.63281 183.064 7.37109L183.721 7.89258C183.584 8.09961 183.41 8.29688 183.199 8.48438C182.988 8.67188 182.729 8.82422 182.42 8.94141C182.115 9.05859 181.754 9.11719 181.336 9.11719ZM186.152 3.65625V9H185.068V2.66016H186.123L186.152 3.65625ZM188.133 2.625L188.127 3.63281C188.037 3.61328 187.951 3.60156 187.869 3.59766C187.791 3.58984 187.701 3.58594 187.6 3.58594C187.35 3.58594 187.129 3.625 186.938 3.70312C186.746 3.78125 186.584 3.89062 186.451 4.03125C186.318 4.17188 186.213 4.33984 186.135 4.53516C186.061 4.72656 186.012 4.9375 185.988 5.16797L185.684 5.34375C185.684 4.96094 185.721 4.60156 185.795 4.26562C185.873 3.92969 185.992 3.63281 186.152 3.375C186.312 3.11328 186.516 2.91016 186.762 2.76562C187.012 2.61719 187.309 2.54297 187.652 2.54297C187.73 2.54297 187.82 2.55273 187.922 2.57227C188.023 2.58789 188.094 2.60547 188.133 2.625ZM191.168 8.02148L192.902 2.66016H194.01L191.73 9H191.004L191.168 8.02148ZM189.721 2.66016L191.508 8.05078L191.631 9H190.904L188.607 2.66016H189.721ZM197.602 9.11719C197.16 9.11719 196.76 9.04297 196.4 8.89453C196.045 8.74219 195.738 8.5293 195.48 8.25586C195.227 7.98242 195.031 7.6582 194.895 7.2832C194.758 6.9082 194.689 6.49805 194.689 6.05273V5.80664C194.689 5.29102 194.766 4.83203 194.918 4.42969C195.07 4.02344 195.277 3.67969 195.539 3.39844C195.801 3.11719 196.098 2.9043 196.43 2.75977C196.762 2.61523 197.105 2.54297 197.461 2.54297C197.914 2.54297 198.305 2.62109 198.633 2.77734C198.965 2.93359 199.236 3.15234 199.447 3.43359C199.658 3.71094 199.814 4.03906 199.916 4.41797C200.018 4.79297 200.068 5.20312 200.068 5.64844V6.13477H195.334V5.25H198.984V5.16797C198.969 4.88672 198.91 4.61328 198.809 4.34766C198.711 4.08203 198.555 3.86328 198.34 3.69141C198.125 3.51953 197.832 3.43359 197.461 3.43359C197.215 3.43359 196.988 3.48633 196.781 3.5918C196.574 3.69336 196.396 3.8457 196.248 4.04883C196.1 4.25195 195.984 4.5 195.902 4.79297C195.82 5.08594 195.779 5.42383 195.779 5.80664V6.05273C195.779 6.35352 195.82 6.63672 195.902 6.90234C195.988 7.16406 196.111 7.39453 196.271 7.59375C196.436 7.79297 196.633 7.94922 196.863 8.0625C197.098 8.17578 197.363 8.23242 197.66 8.23242C198.043 8.23242 198.367 8.1543 198.633 7.99805C198.898 7.8418 199.131 7.63281 199.33 7.37109L199.986 7.89258C199.85 8.09961 199.676 8.29688 199.465 8.48438C199.254 8.67188 198.994 8.82422 198.686 8.94141C198.381 9.05859 198.02 9.11719 197.602 9.11719ZM205.33 7.76953V0H206.42V9H205.424L205.33 7.76953ZM201.064 5.90039V5.77734C201.064 5.29297 201.123 4.85352 201.24 4.45898C201.361 4.06055 201.531 3.71875 201.75 3.43359C201.973 3.14844 202.236 2.92969 202.541 2.77734C202.85 2.62109 203.193 2.54297 203.572 2.54297C203.971 2.54297 204.318 2.61328 204.615 2.75391C204.916 2.89062 205.17 3.0918 205.377 3.35742C205.588 3.61914 205.754 3.93555 205.875 4.30664C205.996 4.67773 206.08 5.09766 206.127 5.56641V6.10547C206.084 6.57031 206 6.98828 205.875 7.35938C205.754 7.73047 205.588 8.04688 205.377 8.30859C205.17 8.57031 204.916 8.77148 204.615 8.91211C204.314 9.04883 203.963 9.11719 203.561 9.11719C203.189 9.11719 202.85 9.03711 202.541 8.87695C202.236 8.7168 201.973 8.49219 201.75 8.20312C201.531 7.91406 201.361 7.57422 201.24 7.18359C201.123 6.78906 201.064 6.36133 201.064 5.90039ZM202.154 5.77734V5.90039C202.154 6.2168 202.186 6.51367 202.248 6.79102C202.314 7.06836 202.416 7.3125 202.553 7.52344C202.689 7.73438 202.863 7.90039 203.074 8.02148C203.285 8.13867 203.537 8.19727 203.83 8.19727C204.189 8.19727 204.484 8.12109 204.715 7.96875C204.949 7.81641 205.137 7.61523 205.277 7.36523C205.418 7.11523 205.527 6.84375 205.605 6.55078V5.13867C205.559 4.92383 205.49 4.7168 205.4 4.51758C205.314 4.31445 205.201 4.13477 205.061 3.97852C204.924 3.81836 204.754 3.69141 204.551 3.59766C204.352 3.50391 204.115 3.45703 203.842 3.45703C203.545 3.45703 203.289 3.51953 203.074 3.64453C202.863 3.76562 202.689 3.93359 202.553 4.14844C202.416 4.35938 202.314 4.60547 202.248 4.88672C202.186 5.16406 202.154 5.46094 202.154 5.77734Z" fill="#A6A8AD"/>
</svg>
